<?xml version="1.0" encoding="UTF-8" standalone="no"?>
<!-- Created with Inkscape (http://www.inkscape.org/) -->

<svg
   xmlns:dc="http://purl.org/dc/elements/1.1/"
   xmlns:cc="http://creativecommons.org/ns#"
   xmlns:rdf="http://www.w3.org/1999/02/22-rdf-syntax-ns#"
   xmlns:svg="http://www.w3.org/2000/svg"
   xmlns="http://www.w3.org/2000/svg"
   version="1.1"
   width="168.88399"
   height="165.8616"
   id="svg2">
  <defs
     id="defs4" />
  <metadata
     id="metadata7">
    <rdf:RDF>
      <cc:Work
         rdf:about="">
        <dc:format>image/svg+xml</dc:format>
        <dc:type
           rdf:resource="http://purl.org/dc/dcmitype/StillImage" />
        <dc:title></dc:title>
      </cc:Work>
    </rdf:RDF>
  </metadata>
  <g
     transform="translate(-136.94402,23.415465)"
     id="g3897">
    <path
       d="m 277.51886,36.584534 a 60,60 0 0 1 -120,0 60,60 0 1 1 120,0 z"
       id="path3296"
       style="fill:#569456;fill-opacity:1;fill-rule:evenodd;stroke:none" />
    <path
       d="m 275.51886,36.565306 a 58,58 0 0 1 -116,0 58,58 0 1 1 116,0 z"
       id="path3895"
       style="fill:#ffffff;fill-opacity:1;fill-rule:evenodd;stroke:none" />
    <g
       transform="matrix(0.55147059,0,0,0.58823529,7.3998115,6.6771818)"
       id="g3289">
      <rect
         width="117.5"
         height="116.76875"
         x="329"
         y="-7.1503172"
         id="rect3804"
         style="fill:#569456;fill-opacity:1;stroke:none" />
      <rect
         width="29.75"
         height="119"
         x="358.75"
         y="-8.6378174"
         id="rect3796"
         style="fill:#ffffff;fill-opacity:1;stroke:none" />
      <rect
         width="89.25"
         height="29.75"
         x="358.75"
         y="80.612183"
         id="rect3798"
         style="fill:#ffffff;fill-opacity:1;stroke:none" />
      <rect
         width="89.25"
         height="29.75"
         x="358.75"
         y="-8.6378174"
         id="rect3800"
         style="fill:#ffffff;fill-opacity:1;stroke:none" />
      <rect
         width="63.21875"
         height="14.875"
         x="369.90625"
         y="43.424683"
         id="rect3802"
         style="fill:#ffffff;fill-opacity:1;stroke:none" />
    </g>
  </g>
  <g
     id="text3907"
     style="font-size:29.46723747px;font-style:normal;font-weight:normal;line-height:125%;letter-spacing:0px;word-spacing:0px;fill:#569456;fill-opacity:1;stroke:none;font-family:Sans">
    <path
       d="m 32.370731,158.13829 -11.726465,0 0,-21.03569 11.726465,0 0,2.17263 -9.280454,0 0,6.77689 8.71931,0 0,2.15824 -8.71931,0 0,7.74091 9.280454,0 0,2.18702"
       id="path3037"
       style="font-variant:normal;font-stretch:normal;text-align:start;line-height:125%;writing-mode:lr-tb;text-anchor:start;fill:#569456;fill-opacity:1;font-family:Open Sans;-inkscape-font-specification:Open Sans" />
    <path
       d="m 47.478446,158.13829 0,-10.2013 c -1.3e-5,-1.28535 -0.292575,-2.24457 -0.877686,-2.87766 -0.585136,-0.63308 -1.501191,-0.94962 -2.748166,-0.94963 -1.649866,1e-5 -2.858482,0.44605 -3.625851,1.33811 -0.767381,0.89209 -1.151069,2.36449 -1.151064,4.41721 l 0,8.27327 -2.388458,0 0,-15.76958 1.942421,0 0.388484,2.15825 0.115106,0 c 0.489197,-0.77695 1.175038,-1.37647 2.057527,-1.79854 0.882474,-0.43163 1.865674,-0.64746 2.949601,-0.64747 1.899244,1e-5 3.32848,0.46044 4.287714,1.38127 0.959204,0.91128 1.438814,2.37409 1.43883,4.38844 l 0,10.28763 -2.388458,0"
       id="path3039"
       style="font-variant:normal;font-stretch:normal;text-align:start;line-height:125%;writing-mode:lr-tb;text-anchor:start;fill:#569456;fill-opacity:1;font-family:Open Sans;-inkscape-font-specification:Open Sans" />
    <path
       d="m 67.665229,142.36871 0,1.51078 -2.920825,0.34531 c 0.268569,0.33575 0.508374,0.77699 0.719415,1.32373 0.211015,0.53717 0.316529,1.14628 0.316543,1.82731 -1.4e-5,1.54436 -0.527584,2.77695 -1.582713,3.6978 -1.055153,0.92085 -2.503574,1.38128 -4.345267,1.38127 -0.470025,10e-6 -0.911265,-0.0384 -1.323723,-0.1151 -1.016779,0.53716 -1.525165,1.21341 -1.52516,2.02875 -5e-6,0.43165 0.177451,0.75299 0.532367,0.96401 0.354906,0.20144 0.96401,0.30216 1.827314,0.30216 l 2.79133,0 c 1.7074,0 3.016734,0.35971 3.928006,1.07912 0.920836,0.71941 1.381261,1.76496 1.381277,3.13665 -1.6e-5,1.74577 -0.700245,3.07429 -2.100692,3.98556 -1.400473,0.92084 -3.443609,1.38127 -6.129416,1.38127 -2.062328,0 -3.654631,-0.38369 -4.776915,-1.15106 -1.112696,-0.76738 -1.669043,-1.8513 -1.669043,-3.25176 0,-0.95922 0.30695,-1.78894 0.920851,-2.48917 0.613899,-0.70023 1.477196,-1.17505 2.589894,-1.42444 -0.402876,-0.18225 -0.743399,-0.46522 -1.021569,-0.84891 -0.268584,-0.38369 -0.402875,-0.82973 -0.402872,-1.33811 -3e-6,-0.57553 0.153472,-1.07912 0.460425,-1.51078 0.306947,-0.43164 0.791353,-0.8489 1.453218,-1.25178 -0.81534,-0.33572 -1.481997,-0.90645 -1.999973,-1.71221 -0.508389,-0.80573 -0.762582,-1.72658 -0.76258,-2.76255 -2e-6,-1.72658 0.517976,-3.0551 1.553936,-3.98556 1.035953,-0.94002 2.503559,-1.41004 4.40282,-1.41005 0.824921,1e-5 1.568315,0.0959 2.230186,0.28776 l 5.453166,0 m -12.575374,18.41703 c -3e-6,0.8537 0.359704,1.50117 1.079123,1.94242 0.71941,0.44123 1.75057,0.66185 3.093484,0.66186 2.004761,-1e-5 3.486754,-0.30216 4.445985,-0.90646 0.968799,-0.59472 1.453205,-1.40526 1.453218,-2.43163 -1.3e-5,-0.8537 -0.263798,-1.44842 -0.791357,-1.78414 -0.527582,-0.32614 -1.520374,-0.48921 -2.978378,-0.48921 l -2.863271,0 c -1.083924,0 -1.928037,0.25899 -2.532341,0.77697 -0.604312,0.51798 -0.906466,1.26137 -0.906463,2.23019 m 1.294947,-13.36673 c -4e-6,1.10311 0.311742,1.93763 0.93524,2.50356 0.623487,0.56595 1.49158,0.84892 2.604282,0.84891 2.330894,1e-5 3.496345,-1.13187 3.496357,-3.39564 -1.2e-5,-2.36926 -1.179851,-3.55389 -3.539522,-3.55391 -1.122294,2e-5 -1.985591,0.30217 -2.589894,0.90647 -0.604313,0.60432 -0.906467,1.50119 -0.906463,2.69061"
       id="path3041"
       style="font-variant:normal;font-stretch:normal;text-align:start;line-height:125%;writing-mode:lr-tb;text-anchor:start;fill:#569456;fill-opacity:1;font-family:Open Sans;-inkscape-font-specification:Open Sans" />
    <path
       d="m 77.593158,158.42606 c -2.330911,0 -4.172612,-0.70983 -5.525107,-2.12947 -1.34291,-1.41964 -2.014364,-3.39084 -2.014362,-5.91359 -2e-6,-2.54193 0.623491,-4.56108 1.870479,-6.05748 1.256573,-1.49637 2.940003,-2.24456 5.050293,-2.24457 1.975983,1e-5 3.53951,0.65228 4.690586,1.95681 1.151049,1.29496 1.726581,3.00716 1.726596,5.13662 l 0,1.51077 -10.863167,0 c 0.04796,1.8513 0.513179,3.25656 1.395666,4.21577 0.892068,0.95923 2.143848,1.43883 3.755346,1.43883 1.697808,0 3.376441,-0.35491 5.035905,-1.06473 l 0,2.12947 c -0.844127,0.3645 -1.645075,0.62349 -2.402846,0.77697 -0.748203,0.16306 -1.654665,0.2446 -2.719389,0.2446 m -0.647474,-14.34514 c -1.266177,2e-5 -2.278153,0.41248 -3.035931,1.2374 -0.748196,0.82494 -1.189437,1.96641 -1.323723,3.42441 l 8.244495,0 c -1.2e-5,-1.50596 -0.335739,-2.65703 -1.007181,-3.45319 -0.671464,-0.80573 -1.630683,-1.2086 -2.87766,-1.20862"
       id="path3043"
       style="font-variant:normal;font-stretch:normal;text-align:start;line-height:125%;writing-mode:lr-tb;text-anchor:start;fill:#569456;fill-opacity:1;font-family:Open Sans;-inkscape-font-specification:Open Sans" />
    <path
       d="m 98.240365,158.13829 0,-10.2013 c -1.3e-5,-1.28535 -0.292575,-2.24457 -0.877686,-2.87766 -0.585136,-0.63308 -1.501191,-0.94962 -2.748166,-0.94963 -1.649866,1e-5 -2.858482,0.44605 -3.625851,1.33811 -0.767381,0.89209 -1.151069,2.36449 -1.151064,4.41721 l 0,8.27327 -2.388458,0 0,-15.76958 1.942421,0 0.388484,2.15825 0.115106,0 c 0.489197,-0.77695 1.175038,-1.37647 2.057527,-1.79854 0.882474,-0.43163 1.865674,-0.64746 2.949601,-0.64747 1.899244,1e-5 3.32848,0.46044 4.287714,1.38127 0.959207,0.91128 1.438817,2.37409 1.438827,4.38844 l 0,10.28763 -2.388455,0"
       id="path3045"
       style="font-variant:normal;font-stretch:normal;text-align:start;line-height:125%;writing-mode:lr-tb;text-anchor:start;fill:#569456;fill-opacity:1;font-family:Open Sans;-inkscape-font-specification:Open Sans" />
    <path
       d="m 107.90931,158.13829 -2.38846,0 0,-15.76958 2.38846,0 0,15.76958 m -2.5899,-20.0429 c 0,-0.54674 0.13429,-0.94481 0.40288,-1.19423 0.26857,-0.25897 0.6043,-0.38846 1.00718,-0.38848 0.38368,2e-5 0.71461,0.12951 0.99279,0.38848 0.27817,0.25901 0.41725,0.65709 0.41726,1.19423 -1e-5,0.53718 -0.13909,0.94005 -0.41726,1.20862 -0.27818,0.259 -0.60911,0.3885 -0.99279,0.38848 -0.40288,2e-5 -0.73861,-0.12948 -1.00718,-0.38848 -0.26859,-0.26857 -0.40288,-0.67144 -0.40288,-1.20862"
       id="path3047"
       style="font-variant:normal;font-stretch:normal;text-align:start;line-height:125%;writing-mode:lr-tb;text-anchor:start;fill:#569456;fill-opacity:1;font-family:Open Sans;-inkscape-font-specification:Open Sans" />
    <path
       d="m 115.24733,142.36871 0,10.23009 c 0,1.28535 0.29256,2.24457 0.87769,2.87765 0.58512,0.63309 1.50117,0.94963 2.74817,0.94963 1.64984,0 2.85366,-0.45083 3.61146,-1.3525 0.76736,-0.90166 1.15105,-2.37406 1.15106,-4.41721 l 0,-8.28766 2.38846,0 0,15.76958 -1.9712,0 -0.34532,-2.11508 -0.12949,0 c -0.48921,0.77697 -1.17026,1.37169 -2.04314,1.78415 -0.86331,0.41246 -1.8513,0.6187 -2.96399,0.6187 -1.91844,0 -3.35727,-0.45563 -4.31649,-1.36689 -0.94963,-0.91126 -1.42444,-2.36927 -1.42444,-4.37405 l 0,-10.31641 2.41723,0"
       id="path3049"
       style="font-variant:normal;font-stretch:normal;text-align:start;line-height:125%;writing-mode:lr-tb;text-anchor:start;fill:#569456;fill-opacity:1;font-family:Open Sans;-inkscape-font-specification:Open Sans" />
    <path
       d="m 141.247,153.83619 c -2e-5,1.46761 -0.54677,2.59949 -1.64027,3.39564 -1.09352,0.79615 -2.62827,1.19423 -4.60426,1.19423 -2.0911,0 -3.72177,-0.33093 -4.89202,-0.9928 l 0,-2.21579 c 0.75778,0.38369 1.56832,0.68584 2.43162,0.90646 0.87289,0.22062 1.71221,0.33093 2.51796,0.33093 1.24698,0 2.20619,-0.19664 2.87766,-0.58992 0.67144,-0.40287 1.00717,-1.01197 1.00718,-1.82731 -1e-5,-0.6139 -0.26859,-1.13668 -0.80575,-1.56833 -0.52758,-0.44123 -1.56353,-0.95921 -3.10787,-1.55394 -1.46761,-0.54674 -2.51316,-1.02156 -3.13665,-1.42444 -0.6139,-0.41245 -1.07433,-0.87767 -1.38128,-1.39566 -0.29736,-0.51797 -0.44603,-1.13667 -0.44603,-1.85609 0,-1.28534 0.52277,-2.29732 1.56832,-3.03593 1.04555,-0.74818 2.47958,-1.12228 4.3021,-1.12229 1.69781,1e-5 3.35726,0.34533 4.97836,1.03596 l -0.84891,1.94242 c -1.58273,-0.65226 -3.01676,-0.97839 -4.30211,-0.97841 -1.13188,2e-5 -1.98559,0.17747 -2.56111,0.53237 -0.57554,0.35492 -0.86331,0.84413 -0.8633,1.46761 -1e-5,0.42206 0.10551,0.78177 0.31654,1.07912 0.22062,0.29737 0.57073,0.58034 1.05035,0.84891 0.4796,0.26859 1.40045,0.65707 2.76255,1.16545 1.87047,0.68105 3.13184,1.3669 3.78412,2.05753 0.66185,0.69064 0.99278,1.55873 0.9928,2.60428"
       id="path3051"
       style="font-variant:normal;font-stretch:normal;text-align:start;line-height:125%;writing-mode:lr-tb;text-anchor:start;fill:#569456;fill-opacity:1;font-family:Open Sans;-inkscape-font-specification:Open Sans" />
    <path
       d="m 144.77213,156.61313 c -1e-5,-0.64267 0.14388,-1.12708 0.43164,-1.45322 0.29736,-0.33572 0.71942,-0.50358 1.26617,-0.50359 0.55635,1e-5 0.988,0.16787 1.29495,0.50359 0.31654,0.32614 0.47481,0.81055 0.47482,1.45322 -1e-5,0.62349 -0.15828,1.1031 -0.47482,1.43883 -0.31655,0.33573 -0.74819,0.50359 -1.29495,0.50359 -0.4892,0 -0.89687,-0.14868 -1.223,-0.44604 -0.31655,-0.30695 -0.47482,-0.80574 -0.47481,-1.49638"
       id="path3053"
       style="font-variant:normal;font-stretch:normal;text-align:start;line-height:125%;writing-mode:lr-tb;text-anchor:start;fill:#569456;fill-opacity:1;font-family:Open Sans;-inkscape-font-specification:Open Sans" />
  </g>
</svg>
